<?xml version="1.0" encoding="UTF-8"?>
<svg version="1.1" xmlns="http://www.w3.org/2000/svg" width="214" height="154">
<path d="M0 0 C70.62 0 141.24 0 214 0 C214 50.82 214 101.64 214 154 C143.38 154 72.76 154 0 154 C0 103.18 0 52.36 0 0 Z " fill="#FCFCFB" transform="translate(0,0)"/>
<path d="M0 0 C6.22555982 -0.07461488 12.45085456 -0.1288209 18.67675781 -0.16479492 C20.7910618 -0.17980487 22.90533507 -0.2002192 25.01953125 -0.22631836 C28.07299421 -0.26304633 31.12604257 -0.27980474 34.1796875 -0.29296875 C35.57874832 -0.31619453 35.57874832 -0.31619453 37.006073 -0.33988953 C44.36510365 -0.34174194 51.82394176 0.41483632 57.6875 5.1875 C58.450625 6.115625 59.21375 7.04375 60 8 C60.61101562 8.6703125 61.22203125 9.340625 61.8515625 10.03125 C67 15.69248008 67 15.69248008 67 18 C67.66 18 68.32 18 69 18 C69.64910154 19.58199631 70.29414694 21.16565724 70.9375 22.75 C71.29714844 23.63171875 71.65679687 24.5134375 72.02734375 25.421875 C74.9176419 33.08290625 74.99905494 40.93676336 72.11328125 48.63671875 C68.9095857 55.43754614 64.83354782 62.16648895 59 67 C58.34 67 57.68 67 57 67 C56.66162109 67.92232422 56.66162109 67.92232422 56.31640625 68.86328125 C54.58166024 71.67902625 53.02111847 72.10046903 49.9375 73.1875 C46.70996071 74.16681203 46.70996071 74.16681203 44 76 C41.88318683 76.0942174 39.76319242 76.11742761 37.64428711 76.11352539 C36.98089828 76.11367142 36.31750946 76.11381744 35.63401794 76.1139679 C33.43176044 76.11326881 31.22958655 76.10547665 29.02734375 76.09765625 C27.50419664 76.09579206 25.98104893 76.09436816 24.457901 76.09336853 C20.44162349 76.08954346 16.42538192 76.07971328 12.40911865 76.06866455 C8.31376634 76.05845019 4.21840824 76.05387086 0.12304688 76.04882812 C-7.91798528 76.038091 -15.95898817 76.02101472 -24 76 C-24 75.01 -24 74.02 -24 73 C-22.02 72.505 -22.02 72.505 -20 72 C-20 71.34 -20 70.68 -20 70 C-19.24546539 69.99857498 -18.49093079 69.99714996 -17.71353149 69.99568176 C-10.56425608 69.97777043 -3.41569348 69.93591899 3.73326683 69.86790943 C7.40770833 69.83377834 11.08174021 69.80855136 14.75634766 69.80444336 C18.30994968 69.80013016 21.8626299 69.77142232 25.41594315 69.72656822 C27.41525716 69.70746766 29.41475789 69.71292111 31.41415405 69.71894836 C38.49200614 69.60687466 43.68625625 68.87980851 49.83535767 65.26420593 C52 64 52 64 54.70883179 62.95979309 C57.57187655 61.76043524 57.75108534 60.74761225 59 58 C60.32848691 56.99357052 61.66150329 55.99307821 63 55 C63.33 54.01 63.66 53.02 64 52 C64.66 52 65.32 52 66 52 C68.01200087 39.42499455 68.31018435 28.03449295 60.9140625 17.25 C56.69553324 12.29107581 49.48127437 6.56998172 42.81060791 5.7215271 C42.02007019 5.70820343 41.22953247 5.69487976 40.41503906 5.68115234 C39.06409149 5.65134781 39.06409149 5.65134781 37.68585205 5.62094116 C36.72217712 5.60938995 35.7585022 5.59783875 34.765625 5.5859375 C33.77246277 5.56657135 32.77930054 5.5472052 31.75604248 5.5272522 C28.58744871 5.46752678 25.41881847 5.42109889 22.25 5.375 C20.10024467 5.33681377 17.95050454 5.29776166 15.80078125 5.2578125 C10.53398915 5.16183109 5.26710536 5.07676296 0 5 C0 3.35 0 1.7 0 0 Z " fill="#9E8462" transform="translate(138,74)"/>
<path d="M0 0 C1.98 0 3.96 0 6 0 C6.04679446 14.725572 6.08202526 29.45113411 6.10362434 44.17676544 C6.11392132 51.01467886 6.12795134 57.85254599 6.15087891 64.69042969 C6.17300024 71.29102981 6.18457373 77.89159452 6.18975449 84.49223328 C6.19344593 87.00877132 6.20065438 89.52530678 6.21146011 92.04182434 C6.22600651 95.57025814 6.22797659 99.09849409 6.22705078 102.62695312 C6.23424133 103.66417511 6.24143188 104.70139709 6.24884033 105.77005005 C6.23250756 111.53372448 5.65663924 116.47256981 4 122 C3.34 122 2.68 122 2 122 C0.92474806 124.65228812 -0.09456151 127.28368454 -1 130 C-4.44444444 133 -4.44444444 133 -7 133 C-7 133.66 -7 134.32 -7 135 C-14.82332132 137.50346282 -24.09639632 139.05764296 -31.8671875 135.796875 C-37.68043849 132.119483 -37.68043849 132.119483 -38.61328125 128.8515625 C-38.74089844 128.24054688 -38.86851563 127.62953125 -39 127 C-39.61875 126.71125 -40.2375 126.4225 -40.875 126.125 C-44.04272251 124.44797044 -44.71747887 122.27042889 -46 119 C-46.1875 116.125 -46.1875 116.125 -46 114 C-43.125 113.8125 -43.125 113.8125 -40 114 C-38 117 -38 117 -38 121 C-37.34 121 -36.68 121 -36 121 C-33 124.46153846 -33 124.46153846 -33 127 C-32.0409375 127.2165625 -32.0409375 127.2165625 -31.0625 127.4375 C-29 128 -29 128 -28 129 C-20.75860451 129.54572836 -14.35563446 129.7304811 -8 126 C-6.24850835 124.41754725 -6.24850835 124.41754725 -5 123 C-4.34 123 -3.68 123 -3 123 C-3 122.34 -3 121.68 -3 121 C-2.34 121 -1.68 121 -1 121 C-0.67 81.07 -0.34 41.14 0 0 Z " fill="#A38C70" transform="translate(113,2)"/>
<path d="M0 0 C0.77943466 0.00222061 1.55886932 0.00444122 2.36192322 0.00672913 C3.24276077 0.00680466 4.12359833 0.00688019 5.03112793 0.00695801 C5.98841293 0.01211929 6.94569794 0.01728058 7.93199158 0.02259827 C9.39480812 0.02472069 9.39480812 0.02472069 10.88717651 0.02688599 C14.01542675 0.03250319 17.14360656 0.04505859 20.27183533 0.05775452 C22.38706867 0.0627673 24.50230313 0.06733059 26.61753845 0.07142639 C31.81482829 0.0824782 37.01207678 0.09923305 42.20933533 0.12025452 C42.20933533 0.78025452 42.20933533 1.44025452 42.20933533 2.12025452 C43.04464783 2.27494202 43.04464783 2.27494202 43.89683533 2.43275452 C49.82980387 4.19661003 54.45546068 8.30213706 58.20933533 13.12025452 C61.43747526 19.94465561 61.15920412 28.73932364 58.95933533 35.80775452 C55.06749091 46.03515962 55.06749091 46.03515962 50.43247986 48.74183655 C37.41865286 54.30736202 21.16540855 52.34880684 7.33433533 52.24525452 C4.98928707 52.23520385 2.64423464 52.22608169 0.29917908 52.21791077 C-5.39752783 52.19606461 -11.09407633 52.16275271 -16.79066467 52.12025452 C-14.91566467 48.24525452 -14.91566467 48.24525452 -13.79066467 47.12025452 C-12.23774971 47.00278102 -10.67964575 46.95297889 -9.12245178 46.93080139 C-8.1272905 46.91408386 -7.13212921 46.89736633 -6.10681152 46.88014221 C-5.0215065 46.86656677 -3.93620148 46.85299133 -2.81800842 46.83900452 C-1.70639847 46.82059509 -0.59478851 46.80218567 0.55050659 46.78321838 C4.12422709 46.72425958 7.69799774 46.6715938 11.27183533 46.62025452 C14.82067405 46.56874183 18.36945039 46.51571901 21.91818237 46.45729065 C24.12967674 46.42088532 26.34124006 46.38839658 28.55285645 46.36036682 C34.18561046 46.26779576 39.6353068 45.94609844 45.20933533 45.12025452 C45.20933533 44.13025452 45.20933533 43.14025452 45.20933533 42.12025452 C46.83273338 40.41141446 48.50252586 38.74578735 50.20933533 37.12025452 C52.68977847 33.3995898 52.65314705 30.25484978 52.83433533 25.93275452 C52.8730072 25.18316467 52.91167908 24.43357483 52.95152283 23.66127014 C53.04561748 21.81466253 53.12855852 19.96749262 53.20933533 18.12025452 C52.54933533 18.12025452 51.88933533 18.12025452 51.20933533 18.12025452 C50.69371033 17.00650452 50.17808533 15.89275452 49.64683533 14.74525452 C48.40400586 12.52431377 47.68062656 11.35539554 45.38511658 10.21009827 C43.25703945 9.59432048 43.25703945 9.59432048 40.20933533 9.12025452 C40.20933533 8.46025452 40.20933533 7.80025452 40.20933533 7.12025452 C26.34933533 6.79025452 12.48933533 6.46025452 -1.79066467 6.12025452 C-2.12066467 4.47025452 -2.45066467 2.82025452 -2.79066467 1.12025452 C-1.79066467 0.12025452 -1.79066467 0.12025452 0 0 Z " fill="#A68B66" transform="translate(139.79066467285156,84.87974548339844)"/>
<path d="M0 0 C2.475 0.495 2.475 0.495 5 1 C5 40.6 5 80.2 5 121 C2.525 121.495 2.525 121.495 0 122 C0 81.74 0 41.48 0 0 Z " fill="#9E8668" transform="translate(126,3)"/>
<path d="M0 0 C6.01398527 -0.04955115 12.02785086 -0.08579131 18.04199219 -0.10986328 C20.08660961 -0.11990179 22.13121274 -0.13353542 24.17578125 -0.15087891 C27.11982761 -0.1752217 30.06368363 -0.18650478 33.0078125 -0.1953125 C33.9174173 -0.20563507 34.82702209 -0.21595764 35.76419067 -0.22659302 C46.73071275 -0.22851834 54.5025927 4.39692661 62.58984375 11.5078125 C64.43981444 13.46539921 65.31456541 15.41058043 66 18 C66.66 18 67.32 18 68 18 C68 18.99 68 19.98 68 21 C68.66 21 69.32 21 70 21 C70.86963087 23.99706695 71.11763099 26.64956526 71.09765625 29.765625 C71.09282227 31.09980469 71.09282227 31.09980469 71.08789062 32.4609375 C71.07532227 33.84152344 71.07532227 33.84152344 71.0625 35.25 C71.05798828 36.18585937 71.05347656 37.12171875 71.04882812 38.0859375 C71.03706918 40.39069041 71.02063426 42.69531227 71 45 C70.34 45 69.68 45 69 45 C68.896875 45.886875 68.79375 46.77375 68.6875 47.6875 C67.9690883 51.14893819 67.2467929 53.27175148 65 56 C62.3125 56.3125 62.3125 56.3125 60 56 C59.25 54.375 59.25 54.375 59 52 C60.29327628 49.97386717 61.6296945 47.97485205 63 46 C64.03530419 42.18435058 64.16428551 38.5043209 64.1875 34.5625 C64.20167969 33.47066406 64.21585937 32.37882812 64.23046875 31.25390625 C63.64544555 22.99417185 59.40931343 17.23447684 53.5625 11.6875 C50.47479525 9.65413346 47.44019384 8.34909562 44 7 C44 6.34 44 5.68 44 5 C29.48 5 14.96 5 0 5 C0 3.35 0 1.7 0 0 Z " fill="#9C7D56" transform="translate(136,18)"/>
<path d="M0 0 C5.64167969 -0.02470254 11.28332795 -0.04286121 16.92504883 -0.05493164 C18.84465076 -0.05996315 20.76424886 -0.06678898 22.68383789 -0.07543945 C25.44157864 -0.08755669 28.19926876 -0.09324011 30.95703125 -0.09765625 C31.81649857 -0.10281754 32.67596588 -0.10797882 33.56147766 -0.11329651 C34.36208115 -0.11337204 35.16268463 -0.11344757 35.98754883 -0.11352539 C36.6914827 -0.115746 37.39541656 -0.11796661 38.12068176 -0.12025452 C40 0 40 0 43 1 C43 2.98 43 4.96 43 7 C30.79 7 18.58 7 6 7 C6.03959728 16.82803025 6.03959728 16.82803025 6.09008789 26.65600586 C6.09258545 27.87167236 6.09508301 29.08733887 6.09765625 30.33984375 C6.10289307 31.59144287 6.10812988 32.84304199 6.11352539 34.13256836 C6 37 6 37 5 38 C2.5 38.125 2.5 38.125 0 38 C-1.7234882 36.2765118 -1.12815354 34.0771367 -1.13894653 31.77981567 C-1.1369223 31.05067963 -1.13489807 30.32154358 -1.1328125 29.5703125 C-1.13376923 28.82417694 -1.13472595 28.07804138 -1.13571167 27.30929565 C-1.13639355 25.72719234 -1.13453873 24.14508625 -1.13037109 22.56298828 C-1.12503787 20.14218836 -1.13030801 17.72157525 -1.13671875 15.30078125 C-1.13605767 13.76562459 -1.13477591 12.23046805 -1.1328125 10.6953125 C-1.13483673 9.97022491 -1.13686096 9.24513733 -1.13894653 8.49807739 C-1.12448908 5.39185016 -0.9900752 2.97022561 0 0 Z " fill="#BAA892" transform="translate(137,29)"/>
<path d="M0 0 C2.64 0 5.28 0 8 0 C8.07001391 16.00264493 8.12295068 32.00524035 8.15543652 48.00800133 C8.17091972 55.43800342 8.19203682 62.86791047 8.22631836 70.29785156 C8.25617644 76.77215818 8.27556442 83.24639598 8.28226548 89.72076952 C8.28618389 93.15041343 8.2954224 96.57986044 8.31719017 100.00944138 C8.34126679 103.8336436 8.34197231 107.65765143 8.34057617 111.48193359 C8.351362 112.62488388 8.36214783 113.76783417 8.3732605 114.94541931 C8.36913651 115.98310959 8.36501251 117.02079987 8.36076355 118.0899353 C8.36352893 118.99513601 8.36629431 119.90033672 8.36914349 120.83296776 C8.24732614 121.5480884 8.12550879 122.26320904 8 123 C5 125 5 125 0 124 C0 83.08 0 42.16 0 0 Z M2 1 C2 41.26 2 81.52 2 123 C4.475 122.505 4.475 122.505 7 122 C7 82.4 7 42.8 7 2 C5.35 1.67 3.7 1.34 2 1 Z " fill="#D7CEC4" transform="translate(124,2)"/>
<path d="M0 0 C2.29296875 0.0859375 2.29296875 0.0859375 5 1 C6.33619334 3.24000052 7.32736025 5.24021314 8.3125 7.625 C11.82568697 15.3753985 16.18596728 20.32688484 24 24 C24 24.66 24 25.32 24 26 C34.43553958 27.97763187 43.49417507 28.33407301 54 27 C54 27.99 54 28.98 54 30 C53.01 30.33 52.02 30.66 51 31 C50.34 31.99 49.68 32.98 49 34 C46.92456055 34.37231445 46.92456055 34.37231445 44.38671875 34.36328125 C43.46826172 34.36263672 42.54980469 34.36199219 41.60351562 34.36132812 C40.16008789 34.3371582 40.16008789 34.3371582 38.6875 34.3125 C37.26147461 34.31733398 37.26147461 34.31733398 35.80664062 34.32226562 C31.14123789 34.28640299 27.2140211 34.25526502 23 32 C23 31.34 23 30.68 23 30 C22.40832031 29.85304687 21.81664063 29.70609375 21.20703125 29.5546875 C15.16889563 27.8407632 12.63243237 26.08540532 9 21 C8.29875 20.29875 7.5975 19.5975 6.875 18.875 C2.8254698 14.8254698 1.56082509 12.00634687 0.8125 6.25 C0.65394531 5.07953125 0.49539062 3.9090625 0.33203125 2.703125 C0.22246094 1.81109375 0.11289062 0.9190625 0 0 Z " fill="#A48C6A" transform="translate(53,116)"/>
<path d="M0 0 C-1.19660372 3.58981117 -2.67135096 4.41695732 -5.93678284 6.15711975 C-12.89377639 8.99924057 -21.44872481 8.1339677 -28.81640625 8.09765625 C-30.46200783 8.09553383 -30.46200783 8.09553383 -32.14085388 8.09336853 C-35.61476469 8.08781012 -39.08860896 8.07526546 -42.5625 8.0625 C-44.93033761 8.05747962 -47.29817623 8.05291766 -49.66601562 8.04882812 C-55.44403278 8.03785435 -61.22201164 8.02115811 -67 8 C-65.125 4.125 -65.125 4.125 -64 3 C-62.44690612 2.88773172 -60.88884244 2.84325266 -59.33178711 2.82641602 C-58.33662582 2.81292618 -57.34146454 2.79943634 -56.31614685 2.78553772 C-54.68818932 2.76988014 -54.68818932 2.76988014 -53.02734375 2.75390625 C-50.74283502 2.72094651 -48.4583299 2.68773524 -46.17382812 2.65429688 C-42.56195768 2.60701403 -38.95009961 2.56263759 -35.33813477 2.52319336 C-31.85937375 2.48329548 -28.3809286 2.43176895 -24.90234375 2.37890625 C-23.83120834 2.3704921 -22.76007294 2.36207794 -21.65647888 2.35340881 C-14.34600703 2.23380824 -7.14190306 -0.44636894 0 0 Z " fill="#A18666" transform="translate(190,129)"/>
<path d="M0 0 C1.32 0 2.64 0 4 0 C4.02895225 3.29164829 4.0467823 6.58326399 4.0625 9.875 C4.07087891 10.81214844 4.07925781 11.74929688 4.08789062 12.71484375 C4.09111328 13.61074219 4.09433594 14.50664062 4.09765625 15.4296875 C4.10289307 16.25710449 4.10812988 17.08452148 4.11352539 17.93701172 C4 20 4 20 3 22 C2.87692886 25.08106328 2.81418925 28.14093958 2.79467773 31.22314453 C2.78477814 32.1792865 2.77487854 33.13542847 2.76467896 34.12054443 C2.7330088 37.29127499 2.70828473 40.46202054 2.68359375 43.6328125 C2.66302899 45.8271423 2.64203265 48.0214681 2.62062073 50.21578979 C2.56535073 55.99929568 2.51596321 61.78283761 2.46777344 67.56640625 C2.41759435 73.46487649 2.36188956 79.36329421 2.30664062 85.26171875 C2.19899879 96.841101 2.09756723 108.42052879 2 120 C1.34 120 0.68 120 0 120 C0 80.4 0 40.8 0 0 Z " fill="#8D6E4A" transform="translate(127,4)"/>
<path d="M0 0 C6.03228065 -0.07424697 12.06429432 -0.1286483 18.09692383 -0.16479492 C20.14840326 -0.17986622 22.19985056 -0.20032682 24.2512207 -0.22631836 C27.20271748 -0.26277424 30.15378763 -0.27974306 33.10546875 -0.29296875 C34.47761787 -0.31619453 34.47761787 -0.31619453 35.87748718 -0.33988953 C40.65280955 -0.34114698 44.24251122 -0.33332695 48 3 C48 3.99 48 4.98 48 6 C32.16 5.67 16.32 5.34 0 5 C0 3.35 0 1.7 0 0 Z " fill="#977952" transform="translate(136,18)"/>
<path d="M0 0 C20.46 0 40.92 0 62 0 C62 0.33 62 0.66 62 1 C42.2 1 22.4 1 2 1 C2 1.66 2 2.32 2 3 C9.25916264 3.02329804 16.51831706 3.04100329 23.77750969 3.05181217 C27.14921272 3.05700313 30.52088994 3.06403091 33.89257812 3.07543945 C37.77995471 3.08764134 41.66729518 3.09325949 45.5546875 3.09765625 C46.74988007 3.10281754 47.94507263 3.10797882 49.17648315 3.11329651 C55.84932393 3.11373845 62.37704946 2.8315963 69 2 C67.68576206 4.62847588 66.73965307 4.96602068 64 6 C60.93743896 6.24050903 60.93743896 6.24050903 57.30371094 6.22705078 C56.30797058 6.22748886 56.30797058 6.22748886 55.29211426 6.22793579 C53.10606649 6.22654658 50.92036296 6.21100503 48.734375 6.1953125 C47.21551703 6.19158091 45.69665665 6.18873463 44.17779541 6.18673706 C40.18617063 6.1791121 36.19469211 6.15947344 32.203125 6.1373291 C28.12762429 6.11684614 24.05209988 6.10773011 19.9765625 6.09765625 C11.98430799 6.07622641 3.99217221 6.04210426 -4 6 C-4 5.01 -4 4.02 -4 3 C-2.68 2.67 -1.36 2.34 0 2 C0 1.34 0 0.68 0 0 Z " fill="#A98F6B" transform="translate(118,144)"/>
<path d="M0 0 C5.05376794 -0.02297167 10.10735424 -0.04288047 15.16113281 -0.05493164 C16.87988906 -0.0599563 18.59864105 -0.0667771 20.31738281 -0.07543945 C22.78972426 -0.0875868 25.26200912 -0.09324703 27.734375 -0.09765625 C28.50118591 -0.10281754 29.26799683 -0.10797882 30.05804443 -0.11329651 C33.54849615 -0.11366245 36.64274473 0.06247262 40 1 C40 1.99 40 2.98 40 4 C21.19 4.495 21.19 4.495 2 5 C2 14.57 2 24.14 2 34 C1.34 34 0.68 34 0 34 C0 22.78 0 11.56 0 0 Z " fill="#93734F" transform="translate(139,31)"/>
<path d="M0 0 C2.875 -0.1875 2.875 -0.1875 6 0 C8 3 8 3 8 7 C8.66 7 9.32 7 10 7 C13 10.46153846 13 10.46153846 13 13 C13.9590625 13.2165625 13.9590625 13.2165625 14.9375 13.4375 C17 14 17 14 18 15 C20.53049402 15.07313567 23.03304837 15.09247527 25.5625 15.0625 C26.27341797 15.05798828 26.98433594 15.05347656 27.71679688 15.04882812 C29.47790013 15.03700864 31.23896036 15.01907263 33 15 C32.67 15.66 32.34 16.32 32 17 C26.39 17 20.78 17 15 17 C15 17.99 15 18.98 15 20 C17.87506421 20.02712325 20.74986908 20.04689851 23.625 20.0625 C24.43324219 20.07087891 25.24148437 20.07925781 26.07421875 20.08789062 C30.50341918 20.1058955 34.63883424 19.89622662 39 19 C39 19.66 39 20.32 39 21 C31.17667868 23.50346282 21.90360368 25.05764296 14.1328125 21.796875 C8.31956151 18.119483 8.31956151 18.119483 7.38671875 14.8515625 C7.25910156 14.24054688 7.13148437 13.62953125 7 13 C6.071875 12.566875 6.071875 12.566875 5.125 12.125 C1.95727749 10.44797044 1.28252113 8.27042889 0 5 C-0.1875 2.125 -0.1875 2.125 0 0 Z " fill="#CABCA8" transform="translate(67,116)"/>
<path d="M0 0 C0.33 0 0.66 0 1 0 C1.02909763 3.24998112 1.04683161 6.49992857 1.0625 9.75 C1.07087891 10.67039062 1.07925781 11.59078125 1.08789062 12.5390625 C1.09111328 13.42851563 1.09433594 14.31796875 1.09765625 15.234375 C1.10289307 16.05131836 1.10812988 16.86826172 1.11352539 17.70996094 C1.00299021 19.93968135 0.62055567 21.86133755 0 24 C-0.66 24 -1.32 24 -2 24 C-3.07525194 26.65228812 -4.09456151 29.28368454 -5 32 C-10.31109138 37.31109138 -17.78100428 37.17151359 -24.8125 37.1875 C-31.53869654 37.15376782 -31.53869654 37.15376782 -35 36 C-35 35.01 -35 34.02 -35 33 C-33.87722656 33.00902344 -32.75445312 33.01804688 -31.59765625 33.02734375 C-23.03137429 32.91929711 -17.02197338 32.77479602 -10.56640625 26.49609375 C-9 25 -9 25 -7 25 C-7 24.34 -7 23.68 -7 23 C-6.195625 22.71125 -5.39125 22.4225 -4.5625 22.125 C-1.8673532 21.26737432 -1.8673532 21.26737432 -1 19 C-0.84932786 17.5534758 -0.75138964 16.1012066 -0.68359375 14.6484375 C-0.62075195 13.37226562 -0.62075195 13.37226562 -0.55664062 12.0703125 C-0.51732422 11.18085937 -0.47800781 10.29140625 -0.4375 9.375 C-0.37272461 8.02921875 -0.37272461 8.02921875 -0.30664062 6.65625 C-0.20043139 4.43765717 -0.09838806 2.2189512 0 0 Z " fill="#A38969" transform="translate(117,100)"/>
<path d="M0 0 C-0.33 0.99 -0.66 1.98 -1 3 C-8.17063483 4.12138175 -15.22114837 4.12813309 -22.46875 4.09765625 C-24.38282654 4.09553383 -24.38282654 4.09553383 -26.33557129 4.09336853 C-29.70238156 4.08874011 -33.06912207 4.07977971 -36.43591309 4.06866455 C-39.88174848 4.0583733 -43.32759112 4.0538545 -46.7734375 4.04882812 C-53.51564403 4.03783326 -60.25781799 4.0211208 -67 4 C-66.67 3.01 -66.34 2.02 -66 1 C-58.28060576 0.86902183 -50.56120245 0.73859049 -42.84178734 0.60884857 C-39.25698777 0.54858105 -35.67219153 0.48812837 -32.08740234 0.42724609 C-28.62500353 0.36844936 -25.1625967 0.3101474 -21.70018387 0.25218201 C-19.74269292 0.21928369 -17.7852105 0.18587893 -15.82772827 0.15246582 C-14.02654037 0.12243469 -14.02654037 0.12243469 -12.18896484 0.09179688 C-11.13639496 0.07403198 -10.08382507 0.05626709 -8.99935913 0.03796387 C-5.9992182 -0.0000099 -3.00034618 -0.00658731 0 0 Z " fill="#907045" transform="translate(186,144)"/>
<path d="M0 0 C1.98 0 3.96 0 6 0 C6 9.24 6 18.48 6 28 C4.02 28 2.04 28 0 28 C0 18.76 0 9.52 0 0 Z " fill="#A79274" transform="translate(137,97)"/>
<path d="M0 0 C5.38432836 4.97014925 5.38432836 4.97014925 6 9 C6.06790675 11.24907152 6.08499984 13.50001605 6.0625 15.75 C6.05347656 16.92046875 6.04445312 18.0909375 6.03515625 19.296875 C6.02355469 20.18890625 6.01195312 21.0809375 6 22 C6.66 22 7.32 22 8 22 C8.33 16.39 8.66 10.78 9 5 C12.08628327 11.17256653 11.80349667 17.13426472 9.75 23.6875 C5.91053463 33.77725784 5.91053463 33.77725784 0.875 37 C-0.548125 37.495 -0.548125 37.495 -2 38 C-2.66 37.67 -3.32 37.34 -4 37 C-1.525 34.525 -1.525 34.525 1 32 C-0.65 32 -2.3 32 -4 32 C-4 30 -4 30 -1.625 27.5625 C-0.75875 26.716875 0.1075 25.87125 1 25 C3.48044315 21.27933528 3.44381173 18.13459526 3.625 13.8125 C3.66367188 13.06291016 3.70234375 12.31332031 3.7421875 11.54101562 C3.83628216 9.69440801 3.91922319 7.8472381 4 6 C3.34 6 2.68 6 2 6 C1.34 4.02 0.68 2.04 0 0 Z " fill="#B9A68C" transform="translate(189,97)"/>
<path d="M0 0 C0.33 0.66 0.66 1.32 1 2 C1.66 2 2.32 2 3 2 C4.639133 12.85925612 5.01303904 23.82609752 0.6875 34.125 C-1 36 -1 36 -3.6875 36.3125 C-4.450625 36.209375 -5.21375 36.10625 -6 36 C-6.75 34.375 -6.75 34.375 -7 32 C-5.1875 29 -5.1875 29 -3 26 C-1.31789924 23.12493807 -0.76078053 21.1354252 -0.83984375 17.8125 C-0.85080078 17.03132813 -0.86175781 16.25015625 -0.87304688 15.4453125 C-0.90495117 14.23488281 -0.90495117 14.23488281 -0.9375 13 C-0.97209263 11.39592677 -1.00219463 9.79174907 -1.02734375 8.1875 C-1.04531006 7.47980469 -1.06327637 6.77210937 -1.08178711 6.04296875 C-0.9961749 3.90445249 -0.58840563 2.05264482 0 0 Z " fill="#977A54" transform="translate(202,38)"/>
<path d="M0 0 C13.53 0 27.06 0 41 0 C41 0.99 41 1.98 41 3 C27.47 3 13.94 3 0 3 C0 2.01 0 1.02 0 0 Z " fill="#8F6E40" transform="translate(139,86)"/>
<path d="M0 0 C0.66 0.66 1.32 1.32 2 2 C2.66 1.67 3.32 1.34 4 1 C3.52354792 5.28806873 2.34097516 7.26647487 -1 10 C-1.66 10 -2.32 10 -3 10 C-3.2784375 10.9590625 -3.2784375 10.9590625 -3.5625 11.9375 C-5 14 -5 14 -8.625 14.75 C-10.295625 14.87375 -10.295625 14.87375 -12 15 C-12 14.34 -12 13.68 -12 13 C-13.98 13 -15.96 13 -18 13 C-15.34334798 11.22889865 -12.66320094 9.53691486 -9.9375 7.875 C-9.05964844 7.33617187 -8.18179688 6.79734375 -7.27734375 6.2421875 C-5 5 -5 5 -3 5 C-2.690625 4.360625 -2.38125 3.72125 -2.0625 3.0625 C-1 1 -1 1 0 0 Z " fill="#A28660" transform="translate(198,131)"/>
<path d="M0 0 C0.33 0 0.66 0 1 0 C1.33 10.89 1.66 21.78 2 33 C2.99 33 3.98 33 5 33 C5 23.43 5 13.86 5 4 C5.66 4 6.32 4 7 4 C7.02465622 8.25414623 7.04283899 12.50825498 7.05493164 16.76245117 C7.05997101 18.21070073 7.06680253 19.65894517 7.07543945 21.10717773 C7.08752247 23.18474588 7.09323211 25.26224697 7.09765625 27.33984375 C7.10289307 28.59144287 7.10812988 29.84304199 7.11352539 31.13256836 C7 34 7 34 6 35 C3.5 35.125 3.5 35.125 1 35 C0 34 0 34 -0.11352539 30.76538086 C-0.11336631 29.33185874 -0.10767407 27.89833088 -0.09765625 26.46484375 C-0.0962413 25.71159317 -0.09482635 24.95834259 -0.09336853 24.18226624 C-0.08775376 21.7673044 -0.07519883 19.35243399 -0.0625 16.9375 C-0.0574869 15.30403779 -0.05292366 13.67057414 -0.04882812 12.03710938 C-0.03777954 8.02470415 -0.02050506 4.01236759 0 0 Z " fill="#C1B3A4" transform="translate(136,32)"/>
<path d="M0 0 C1.98 0 3.96 0 6 0 C6.33 2.64 6.66 5.28 7 8 C7.66 8 8.32 8 9 8 C10.01866229 9.65532623 11.01810813 11.32260138 12 13 C12.66 13.33 13.32 13.66 14 14 C14 15.32 14 16.64 14 18 C11.03824877 17.38722388 9.61941217 16.74627478 7 15 C7 14.34 7 13.68 7 13 C6.401875 12.79375 5.80375 12.5875 5.1875 12.375 C2.10704989 10.43871707 1.31303949 8.34825071 0 5 C-0.1875 2.125 -0.1875 2.125 0 0 Z " fill="#9C805A" transform="translate(67,116)"/>
<path d="M0 0 C4.875 4.625 4.875 4.625 6 8 C6.66 8 7.32 8 8 8 C8 8.99 8 9.98 8 11 C8.66 11 9.32 11 10 11 C10.86963087 13.99706695 11.11763099 16.64956526 11.09765625 19.765625 C11.09443359 20.65507813 11.09121094 21.54453125 11.08789062 22.4609375 C11.07951172 23.38132812 11.07113281 24.30171875 11.0625 25.25 C11.05798828 26.18585937 11.05347656 27.12171875 11.04882812 28.0859375 C11.03706918 30.39069041 11.02063426 32.69531227 11 35 C10.34 35 9.68 35 9 35 C9 27.41 9 19.82 9 12 C8.34 12 7.68 12 7 12 C5.94380997 16.28297531 5.88297908 20.42985646 5.9375 24.8125 C5.94201172 25.50537109 5.94652344 26.19824219 5.95117188 26.91210938 C5.96286844 28.60811068 5.98080076 30.30406703 6 32 C5.01 32.495 5.01 32.495 4 33 C4.02320313 31.98679687 4.04640625 30.97359375 4.0703125 29.9296875 C4.0890841 28.57813242 4.1072828 27.22656931 4.125 25.875 C4.14175781 25.20984375 4.15851563 24.5446875 4.17578125 23.859375 C4.21861766 19.49006142 3.60262472 16.05369782 2 12 C1.62875 11.05125 1.2575 10.1025 0.875 9.125 C0.58625 8.42375 0.2975 7.7225 0 7 C0.99 7.33 1.98 7.66 3 8 C2.690625 7.236875 2.38125 6.47375 2.0625 5.6875 C1.32106407 3.81210323 0.63771783 1.91315348 0 0 Z " fill="#B9A68C" transform="translate(196,28)"/>
<path d="M0 0 C0 0.99 0 1.98 0 3 C-0.99 3.33 -1.98 3.66 -3 4 C-3.99 5.485 -3.99 5.485 -5 7 C-7.07543945 7.37231445 -7.07543945 7.37231445 -9.61328125 7.36328125 C-10.53173828 7.36263672 -11.45019531 7.36199219 -12.39648438 7.36132812 C-13.83991211 7.3371582 -13.83991211 7.3371582 -15.3125 7.3125 C-16.73852539 7.31733398 -16.73852539 7.31733398 -18.19335938 7.32226562 C-22.85876211 7.28640299 -26.7859789 7.25526502 -31 5 C-27.98968256 4.06576355 -27.13349732 3.95550089 -24 5 C-21.60745424 5.22560676 -19.21071877 5.40848595 -16.8125 5.5625 C-14.90404297 5.68818359 -14.90404297 5.68818359 -12.95703125 5.81640625 C-11.98121094 5.87699219 -11.00539063 5.93757812 -10 6 C-10 5.34 -10 4.68 -10 4 C-10.85271484 4.03480469 -10.85271484 4.03480469 -11.72265625 4.0703125 C-16.92558648 4.19191688 -21.07312243 3.67723492 -26 2 C-26 1.67 -26 1.34 -26 1 C-24.83082031 1.01160156 -23.66164063 1.02320313 -22.45703125 1.03515625 C-20.90885577 1.04453913 -19.36067855 1.0536388 -17.8125 1.0625 C-17.04357422 1.07087891 -16.27464844 1.07925781 -15.48242188 1.08789062 C-10.21582373 1.11049405 -5.22189107 0 0 0 Z " fill="#AF997A" transform="translate(107,143)"/>
<path d="M0 0 C14.52 0 29.04 0 44 0 C44 0.66 44 1.32 44 2 C44.99 2.33 45.98 2.66 47 3 C23.735 2.505 23.735 2.505 0 2 C0 1.34 0 0.68 0 0 Z " fill="#DDD4C7" transform="translate(136,23)"/>
<path d="M0 0 C-0.625 1.875 -0.625 1.875 -2 4 C-6.63342623 5.99369315 -10.67843032 6.24232564 -15.6875 6.1875 C-16.99074219 6.18105469 -18.29398437 6.17460937 -19.63671875 6.16796875 C-23 6 -23 6 -26 5 C-26 4.01 -26 3.02 -26 2 C-25.37432129 1.97494385 -24.74864258 1.9498877 -24.10400391 1.92407227 C-21.27745381 1.80824727 -18.45124831 1.68546015 -15.625 1.5625 C-14.14773437 1.50352539 -14.14773437 1.50352539 -12.640625 1.44335938 C-11.22910156 1.38051758 -11.22910156 1.38051758 -9.7890625 1.31640625 C-8.91975098 1.27974854 -8.05043945 1.24309082 -7.15478516 1.20532227 C-4.40028538 0.9428552 -2.87892535 0 0 0 Z " fill="#997953" transform="translate(108,131)"/>
<path d="M0 0 C3.24998112 -0.02909763 6.49992857 -0.04683161 9.75 -0.0625 C10.67039063 -0.07087891 11.59078125 -0.07925781 12.5390625 -0.08789062 C13.87324219 -0.09272461 13.87324219 -0.09272461 15.234375 -0.09765625 C16.05131836 -0.10289307 16.86826172 -0.10812988 17.70996094 -0.11352539 C19.93968135 -0.00299021 21.86133755 0.37944433 24 1 C24 1.99 24 2.98 24 4 C11.79 4.33 -0.42 4.66 -13 5 C-13 4.34 -13 3.68 -13 3 C-6.73 3 -0.46 3 6 3 C6 2.34 6 1.68 6 1 C4.02 1 2.04 1 0 1 C0 0.67 0 0.34 0 0 Z " fill="#9E815D" transform="translate(155,31)"/>
<path d="M0 0 C0.66 0.33 1.32 0.66 2 1 C1.67 1.33 1.34 1.66 1 2 C20.8 2 40.6 2 61 2 C61 1.67 61 1.34 61 1 C64.3 0.67 67.6 0.34 71 0 C69.68576206 2.62847588 68.73965307 2.96602068 66 4 C62.93743896 4.24050903 62.93743896 4.24050903 59.30371094 4.22705078 C58.30797058 4.22748886 58.30797058 4.22748886 57.29211426 4.22793579 C55.10606649 4.22654658 52.92036296 4.21100503 50.734375 4.1953125 C49.21551703 4.19158091 47.69665665 4.18873463 46.17779541 4.18673706 C42.18617063 4.1791121 38.19469211 4.15947344 34.203125 4.1373291 C30.12762429 4.11684614 26.05209988 4.10773011 21.9765625 4.09765625 C13.98430799 4.07622641 5.99217221 4.04210426 -2 4 C-2 3.01 -2 2.02 -2 1 C-1.34 0.67 -0.68 0.34 0 0 Z " fill="#BFAD92" transform="translate(116,146)"/>
<path d="M0 0 C0.33 0 0.66 0 1 0 C1.08782542 3.52067351 1.14066643 7.04106144 1.1875 10.5625 C1.21263672 11.55314453 1.23777344 12.54378906 1.26367188 13.56445312 C1.34926143 22.15193837 -0.2067005 27.40762471 -6 34 C-6.33 33.34 -6.66 32.68 -7 32 C-7.99 32.495 -7.99 32.495 -9 33 C-8.37240135 30.07120629 -7.41377341 27.63904371 -6 25 C-5.34 25 -4.68 25 -4 25 C-3.67 22.36 -3.34 19.72 -3 17 C-2.01 17 -1.02 17 0 17 C0 11.39 0 5.78 0 0 Z " fill="#9B7E57" transform="translate(208,101)"/>
<path d="M0 0 C0.33 0 0.66 0 1 0 C1.67399267 19.6955637 1.67399267 19.6955637 -4 26 C-6.6875 26.3125 -6.6875 26.3125 -9 26 C-9.75 24.25 -9.75 24.25 -10 22 C-8.0625 19.75 -8.0625 19.75 -6 18 C-5.01 18.33 -4.02 18.66 -3 19 C-3 18.01 -3 17.02 -3 16 C-2.34 16 -1.68 16 -1 16 C-1.01160156 15.43152344 -1.02320313 14.86304688 -1.03515625 14.27734375 C-1.09223194 9.39329516 -0.81956772 4.81496035 0 0 Z " fill="#A48B68" transform="translate(205,48)"/>
<path d="M0 0 C0.99 0.33 1.98 0.66 3 1 C4.1151293 4.3453879 4.13299072 6.91758812 4.125 10.4375 C4.12757813 11.57058594 4.13015625 12.70367187 4.1328125 13.87109375 C3.92573925 18.74949597 3.92573925 18.74949597 3 21 C2.01 21.33 1.02 21.66 0 22 C0.01160156 21.07058594 0.02320313 20.14117187 0.03515625 19.18359375 C0.17626237 11.40905673 0.17626237 11.40905673 -0.5625 3.6875 C-0.706875 2.800625 -0.85125 1.91375 -1 1 C-0.67 0.67 -0.34 0.34 0 0 Z " fill="#997B54" transform="translate(194,98)"/>
<path d="M0 0 C3.98336728 0.41930182 7.58601034 0.87956665 11.4375 2 C15.61720463 3.17325042 19.68689122 3.6283489 24 4 C24 4.66 24 5.32 24 6 C7.05464752 6.65081724 7.05464752 6.65081724 1 3 C0.67 2.01 0.34 1.02 0 0 Z " fill="#917149" transform="translate(73,143)"/>
<path d="M0 0 C2.35546875 0.22265625 2.35546875 0.22265625 5 1 C6.36328125 2.99609375 6.36328125 2.99609375 7.3125 5.4375 C7.63863281 6.24058594 7.96476562 7.04367188 8.30078125 7.87109375 C9 10 9 10 9 12 C8.34 12 7.68 12 7 12 C7 11.01 7 10.02 7 9 C6.34 9 5.68 9 5 9 C5 7.35 5 5.7 5 4 C4.01 4.495 4.01 4.495 3 5 C3.28151087 6.31471568 3.57553339 7.62675767 3.875 8.9375 C4.03742187 9.66839844 4.19984375 10.39929688 4.3671875 11.15234375 C4.82961523 13.20700294 4.82961523 13.20700294 7 14 C7.625 17.0625 7.625 17.0625 8 20 C3.44779294 15.6645647 1.63821839 12.60167995 0.8125 6.25 C0.65394531 5.07953125 0.49539062 3.9090625 0.33203125 2.703125 C0.22246094 1.81109375 0.11289062 0.9190625 0 0 Z " fill="#AA9274" transform="translate(53,116)"/>
<path d="M0 0 C5.97730032 -0.12414511 11.95384052 -0.21459663 17.93212891 -0.2746582 C19.96318647 -0.29971104 21.9941547 -0.3337632 24.02490234 -0.37719727 C26.95432648 -0.43825687 29.88255279 -0.46630227 32.8125 -0.48828125 C34.16142334 -0.52699089 34.16142334 -0.52699089 35.53759766 -0.56648254 C41.97832042 -0.56930994 45.91543606 1.0671219 51 5 C50.67 5.66 50.34 6.32 50 7 C47.36 6.01 44.72 5.02 42 4 C42 3.34 42 2.68 42 2 C28.14 1.67 14.28 1.34 0 1 C0 0.67 0 0.34 0 0 Z " fill="#C2B095" transform="translate(138,90)"/>
<path d="M0 0 C3.47575128 0.56793322 5.02496366 1.66168245 7.3125 4.3125 C7.84488281 4.90675781 8.37726563 5.50101562 8.92578125 6.11328125 C10 8 10 8 9.66796875 10.23046875 C9.44753906 10.81441406 9.22710937 11.39835937 9 12 C4.48652248 9.67878299 1.89912232 7.09287857 -1 3 C-0.67 2.01 -0.34 1.02 0 0 Z " fill="#9A7A53" transform="translate(194,81)"/>
<path d="M0 0 C3.85388798 3.85388798 4.14053806 9.68856646 4.3125 14.9375 C4.22604946 20.00664531 2.89472897 24.33084647 1 29 C-0.38308781 26.23382437 -0.11210196 23.98982 -0.09765625 20.8984375 C-0.09443359 19.68671875 -0.09121094 18.475 -0.08789062 17.2265625 C-0.07951172 15.95554687 -0.07113281 14.68453125 -0.0625 13.375 C-0.05798828 12.09625 -0.05347656 10.8175 -0.04882812 9.5 C-0.03701203 6.33328708 -0.02053815 3.16666644 0 0 Z " fill="#AE997D" transform="translate(208,96)"/>
<path d="M0 0 C-1.3125 2.5 -1.3125 2.5 -3 5 C-3.99 5 -4.98 5 -6 5 C-6 5.66 -6 6.32 -6 7 C-6.99 7 -7.98 7 -9 7 C-9 6.34 -9 5.68 -9 5 C-10.98 5 -12.96 5 -15 5 C-14.01 4.34 -13.02 3.68 -12 3 C-11.2575 2.46375 -10.515 1.9275 -9.75 1.375 C-6.33316778 -0.33341611 -3.77049692 -0.22179394 0 0 Z " fill="#A0835E" transform="translate(195,139)"/>
<path d="M0 0 C-1.47559669 4.42679007 -3.90057368 4.91432696 -8 7 C-8.66 7 -9.32 7 -10 7 C-10 6.01 -10 5.02 -10 4 C-11.32 3.67 -12.64 3.34 -14 3 C-4.58997722 -0.44419134 -4.58997722 -0.44419134 0 0 Z " fill="#9F825C" transform="translate(190,129)"/>
<path d="M0 0 C2.93433786 5.86867571 2.63301687 11.22446451 1.1875 17.5625 C0.795625 18.366875 0.40375 19.17125 0 20 C-0.99 20.33 -1.98 20.66 -3 21 C-3.33 20.01 -3.66 19.02 -4 18 C-3.01 17.67 -2.02 17.34 -1 17 C-0.67 11.39 -0.34 5.78 0 0 Z " fill="#AB9576" transform="translate(198,102)"/>
<path d="M0 0 C0.33 0.66 0.66 1.32 1 2 C1.66 2 2.32 2 3 2 C3.33 3.32 3.66 4.64 4 6 C3.34 6 2.68 6 2 6 C2 8.64 2 11.28 2 14 C1.67 14 1.34 14 1 14 C0.731875 13.0925 0.46375 12.185 0.1875 11.25 C-0.90316248 8.26502899 -2.06802855 6.45887276 -4 4 C-4 3.34 -4 2.68 -4 2 C-3.01 2 -2.02 2 -1 2 C-0.67 1.34 -0.34 0.68 0 0 Z " fill="#A48864" transform="translate(204,90)"/>
<path d="M0 0 C0.66 0 1.32 0 2 0 C2 1.65 2 3.3 2 5 C2.66 5 3.32 5 4 5 C4 5.99 4 6.98 4 8 C4.66 8 5.32 8 6 8 C6.33 9.32 6.66 10.64 7 12 C6.01 12 5.02 12 4 12 C4 11.34 4 10.68 4 10 C3.01 9.67 2.02 9.34 1 9 C0.234375 7.1875 0.234375 7.1875 -0.25 5 C-0.42015625 4.278125 -0.5903125 3.55625 -0.765625 2.8125 C-0.84296875 2.214375 -0.9203125 1.61625 -1 1 C-0.67 0.67 -0.34 0.34 0 0 Z " fill="#8C6C42" transform="translate(56,120)"/>
<path d="M0 0 C4.75481646 0.57634139 7.97048212 2.55068521 12 5 C11.01 5.495 11.01 5.495 10 6 C7.875 5.0625 7.875 5.0625 6 4 C6.33 5.32 6.66 6.64 7 8 C4.69 7.34 2.38 6.68 0 6 C0.99 5.01 1.98 4.02 3 3 C2.01 2.01 1.02 1.02 0 0 Z " fill="#AF9677" transform="translate(180,19)"/>
<path d="M0 0 C0 0.99 0 1.98 0 3 C-4.62 3 -9.24 3 -14 3 C-14 2.34 -14 1.68 -14 1 C-12.41693353 0.83081732 -10.83353281 0.66476064 -9.25 0.5 C-8.36828125 0.4071875 -7.4865625 0.314375 -6.578125 0.21875 C-4 0 -4 0 0 0 Z " fill="#8D6B43" transform="translate(180,133)"/>
<path d="M0 0 C0.33 0 0.66 0 1 0 C1 6.93 1 13.86 1 21 C0.01 21 -0.98 21 -2 21 C-2 19.68 -2 18.36 -2 17 C-1.34 17 -0.68 17 0 17 C0 11.39 0 5.78 0 0 Z " fill="#8D6E44" transform="translate(208,101)"/>
<path d="M0 0 C2 2 2 2 2.1875 5.875 C2.01880189 11.68454116 2.01880189 11.68454116 1 14 C0.01 14.33 -0.98 14.66 -2 15 C-1.34 10.05 -0.68 5.1 0 0 Z " fill="#8E6E47" transform="translate(196,105)"/>
<path d="M0 0 C4.875 1.75 4.875 1.75 6 4 C5.01 4.33 4.02 4.66 3 5 C3.33 6.32 3.66 7.64 4 9 C-0.875 7.25 -0.875 7.25 -2 5 C-1.01 4.67 -0.02 4.34 1 4 C0.67 2.68 0.34 1.36 0 0 Z " fill="#B49E82" transform="translate(191,77)"/>
<path d="M0 0 C2 1.25 2 1.25 4 3 C4 4.32 4 5.64 4 7 C1.525 6.01 1.525 6.01 -1 5 C-0.67 3.35 -0.34 1.7 0 0 Z " fill="#907049" transform="translate(195,29)"/>
<path d="M0 0 C0.33 1.32 0.66 2.64 1 4 C-1.97180943 5.89865603 -4.51460083 7.35455571 -8 8 C-6.625 6.5 -6.625 6.5 -5 5 C-4.34 5 -3.68 5 -3 5 C-2.690625 4.360625 -2.38125 3.72125 -2.0625 3.0625 C-1 1 -1 1 0 0 Z " fill="#BAA78C" transform="translate(198,131)"/>
<path d="M0 0 C3.375 -0.125 3.375 -0.125 7 0 C7.66 0.66 8.32 1.32 9 2 C4.545 2.495 4.545 2.495 0 3 C0 2.01 0 1.02 0 0 Z " fill="#8F7048" transform="translate(82,133)"/>
<path d="M0 0 C1.98 0.66 3.96 1.32 6 2 C6 2.99 6 3.98 6 5 C3.03 4.505 3.03 4.505 0 4 C0 2.68 0 1.36 0 0 Z " fill="#987A54" transform="translate(178,19)"/>
<path d="M0 0 C0.103125 0.639375 0.20625 1.27875 0.3125 1.9375 C0.539375 2.618125 0.76625 3.29875 1 4 C1.99 4.33 2.98 4.66 4 5 C2.68 6.32 1.36 7.64 0 9 C-1.10844919 5.67465243 -0.84454356 3.37817425 0 0 Z " fill="#93764F" transform="translate(205,118)"/>
<path d="M0 0 C2.475 0.495 2.475 0.495 5 1 C4.67 2.32 4.34 3.64 4 5 C2.68 4.34 1.36 3.68 0 3 C0 2.01 0 1.02 0 0 Z " fill="#95744B" transform="translate(199,88)"/>
<path d="M0 0 C1.65 0 3.3 0 5 0 C4 3 4 3 1.9375 4.1875 C1.298125 4.455625 0.65875 4.72375 0 5 C-0.33 4.01 -0.66 3.02 -1 2 C-0.67 1.34 -0.34 0.68 0 0 Z " fill="#96764C" transform="translate(185,129)"/>
<path d="M0 0 C3.37462715 0.54723683 5.08235 1.0549 8 3 C7.67 3.66 7.34 4.32 7 5 C4.36 4.01 1.72 3.02 -1 2 C-0.67 1.34 -0.34 0.68 0 0 Z " fill="#D6CABA" transform="translate(181,92)"/>
</svg>
